<?xml version="1.0" encoding="UTF-8" standalone="no"?>
<!DOCTYPE svg PUBLIC "-//W3C//DTD SVG 1.1//EN" "http://www.w3.org/Graphics/SVG/1.1/DTD/svg11.dtd">
<svg width="100%" height="100%" viewBox="0 0 960 960" version="1.1" xmlns="http://www.w3.org/2000/svg" xmlns:xlink="http://www.w3.org/1999/xlink" xml:space="preserve" xmlns:serif="http://www.serif.com/" style="fill-rule:evenodd;clip-rule:evenodd;stroke-linejoin:round;stroke-miterlimit:2;">
    <g id="背景" transform="matrix(1.224609,0,0,1.224609,-146.847427,-149.866605)">
        <path d="M456.765,532.533C456.24,533.994 456.345,534.027 455.24,535.09C453.925,534.705 443.062,531.53 438.724,539.607C438.248,540.492 437.749,540.547 437.552,601.509C434.324,600.875 425.545,601.173 336.507,601.067C262.561,600.98 260.259,602.691 253.669,593.385C251.258,589.981 252.21,589.563 228.125,371.546C225.399,346.876 217.854,320.873 242.492,317.441C247.932,316.683 558.981,317.162 586.502,317.205C781.334,317.505 781.623,316.515 786.476,318.568C804.141,326.041 799.022,341.239 795.643,372.517C794.355,384.436 782.057,498.277 779.379,521.485C772.272,583.089 773.111,587.488 771.288,591.409C765.994,602.798 762.614,600.994 696.492,601.063C594.049,601.17 594.007,602 585.22,600.571C584.719,585.105 586.063,543.432 584.263,539.608C583.664,538.335 580.52,531.658 567.393,534.672C567.062,534.291 566.731,533.909 566.4,533.528C566.106,525.635 566.287,501.352 566.224,494.5C565.808,449.159 510.129,422.381 475.67,453.682C453.717,473.624 456.858,491.14 456.765,532.533Z" style="fill:rgb(64,70,80);"/>
        <path d="M249.441,612.331L250.485,612.401C261.838,614.333 430.865,612.185 437.579,613.489C437.515,619.223 431.573,665.521 477.488,665.938C553.511,666.629 554.12,666.395 560.308,664.023C590.363,652.5 585.193,616.571 585.204,613.445C588.206,612.404 760.647,614.046 772.502,612.563L773.553,612.314L774.583,612.306C786.777,615.626 786.023,617.437 821.575,651.419C854.877,683.248 855.056,683.746 856.415,687.523C857.106,700.371 848.122,698.248 773.499,698.315C726.062,698.357 186.555,698.84 180.542,698.093C166.945,696.404 167.06,689.787 167.641,686.547C170.191,681.339 170.843,681.749 206.393,647.385C240.78,614.145 241.049,613.639 249.441,612.331Z" style="fill:rgb(52,58,67);"/>
        <path d="M585.22,600.571C594.007,602 594.049,601.17 696.492,601.063C762.614,600.994 765.994,602.798 771.288,591.409C773.111,587.488 772.272,583.089 779.379,521.485C782.057,498.277 794.355,384.436 795.643,372.517C799.022,341.239 804.141,326.041 786.476,318.568C781.623,316.515 781.334,317.505 586.502,317.205C558.981,317.162 247.932,316.683 242.492,317.441C217.854,320.873 225.399,346.876 228.125,371.546C252.21,589.563 251.258,589.981 253.669,593.385C260.259,602.691 262.561,600.98 336.507,601.067C425.545,601.173 434.324,600.875 437.552,601.509C437.59,607.542 437.59,607.467 437.579,613.489C430.865,612.185 261.838,614.333 250.485,612.401L249.843,611.846C242.847,605.328 240.151,600.812 238.623,586.486C234.499,547.821 213.071,355.902 211.973,345.455C211.539,341.321 207.898,306.671 242.493,303.417C246.107,303.077 778.075,303.219 780.509,303.296C792.795,303.688 810.533,312.257 812.414,335.509C813.017,342.954 788.708,550.261 785.349,585.489C783.218,607.839 777.686,605.656 774.265,611.676C774.148,611.881 774.699,612.101 774.583,612.306L773.553,612.314C773.203,612.397 772.853,612.48 772.502,612.563C760.647,614.046 588.206,612.404 585.204,613.445C585.109,606.988 585.136,607.065 585.22,600.571Z" style="fill:rgb(165,166,172);"/>
        <path d="M167.641,686.547C167.06,689.787 166.945,696.404 180.542,698.093C186.555,698.84 726.062,698.357 773.499,698.315C848.122,698.248 857.106,700.371 856.415,687.523C856.74,687.977 857.453,688.045 857.778,688.5C864.045,697.24 865.454,716.203 852.621,722.707C843.786,727.185 843.131,724.833 508.497,725.093C482.497,725.113 207.179,725.327 183.501,725.131C155.936,724.903 158.461,697.325 167.641,686.547Z" style="fill:rgb(191,191,195);"/>
        <path d="M481.819,532.46C481.815,527.141 481.812,521.822 481.809,516.502C481.828,499.926 481.817,499.941 481.825,498.501C482.02,460.98 525.801,456.315 538.606,484.454C542.945,493.989 540.484,533.022 540.381,533.396C536.018,534.875 535.924,534.04 501.496,533.995C484.543,533.973 484.189,534.678 481.819,532.46Z" style="fill:rgb(55,61,71);"/>
        <path d="M437.579,613.489C437.589,608.085 437.295,536.498 437.295,536.498L437.295,531.598L585.916,531.598L585.916,536.498C585.916,536.498 585.119,607.707 585.204,613.445C585.193,616.571 590.363,652.5 560.308,664.023C554.12,666.395 553.511,666.629 477.488,665.938C431.573,665.521 437.515,619.223 437.579,613.489Z" style="fill:rgb(255,184,0);"/>
        <path d="M456.765,532.533C456.858,491.14 453.717,473.624 475.67,453.682C510.129,422.381 565.808,449.159 566.224,494.5C566.287,501.352 566.106,525.635 566.4,533.528C564.329,533.736 548.491,535.325 540.381,533.396C540.484,533.022 542.945,493.989 538.606,484.454C525.801,456.315 482.02,460.98 481.825,498.501C481.817,499.941 481.828,499.926 481.809,516.502C481.812,521.822 481.815,527.141 481.819,532.46C479.398,535.365 478.658,533.573 464.451,534.09C460.37,534.239 460.065,535.039 456.765,532.533Z" style="fill:rgb(255,184,0);"/>
        <path d="M537.5,704.363C622.886,704.41 623.447,704.335 623.704,705.425C624.017,706.749 621.71,716.35 609.507,717.631C609.056,717.678 414.906,717.977 411.519,717.376C400.584,715.436 397.292,704.686 400.479,704.406C404.267,704.073 526.538,704.339 537.5,704.363Z" style="fill:rgb(118,122,131);"/>
        <path d="M493.77,577.565C494.031,576.882 494.142,576.148 494.403,575.465C502.736,553.673 532.308,564.337 529.547,583.505C528.077,593.71 522.136,596.348 520.675,597.661C518.781,599.365 524.257,619.777 522.108,623.281C521.324,624.56 520.212,626.373 503.493,625.556C497.292,625.252 501.46,610.978 502.566,599.502C502.971,595.298 491.098,594.656 493.77,577.565Z" style="fill:rgb(52,58,67);"/>
    </g>
</svg>
